<?xml version="1.0" encoding="utf-8"?>
<!-- Generator: Adobe Illustrator 20.1.0, SVG Export Plug-In . SVG Version: 6.00 Build 0)  -->
<svg version="1.1" id="Layer_1" xmlns="http://www.w3.org/2000/svg" xmlns:xlink="http://www.w3.org/1999/xlink" x="0px" y="0px"
	 viewBox="0 0 380 162.9" style="enable-background:new 0 0 380 162.9;" xml:space="preserve">
<style type="text/css">
	.st0{fill:#231F20;}
</style>
<g>
	<g>
		<path class="st0" d="M92.7,2.2c-1.9,1.9-2.8,5.4-2.8,10.5v47.2c0,27.7-13.5,41.6-40.6,41.6c-4.2,0-7.4-0.9-9.8-2.6v-6.6l1.2-0.4
			c1.8,1,4.4,1.5,7.9,1.5c18.6,0,27.9-10.7,27.9-32V15.5c0-2.2,0.3-3.7,1-4.5H4.5L0,3.7V1.4h92.7V2.2z M24.3,39.9
			c-1.9,1.2-3,2.2-3.4,3c-0.8,1.5-1.1,3.9-1.1,7.2v73.6c0,5-1.8,9-5.5,12.2l-5.7,5H6.9V48.1c0-6.3,1.9-9.4,5.7-9.4h10.8L24.3,39.9z"
			/>
		<path class="st0" d="M133.4,40.3c0,4.1-1.6,7.6-4.9,10.4l-7.3,6.4l-1.1-0.8V20.2c0-8.5-2.9-13.8-8.8-15.9l1.2-2.9h11.2
			c6.5,0,9.8,4.4,9.8,13.3V40.3z"/>
		<path class="st0" d="M270.6,52.4c0,17.1-5.3,29.9-15.9,38.6c-9.7,8-22.9,12-39.7,12c-9.1,0-17-0.9-23.7-2.7
			c-6.7-1.8-12.2-4.6-16.6-8.4c-4.4-3.8-7.7-8.6-9.8-14.5c-2.1-5.9-3.2-12.9-3.2-21V19.8c0-8-2.7-13.1-8.1-15.3l1.1-3.1h10.1
			c6.6,0,10,4.7,10,14.1v29.2c0,3.8,3,5.7,9,5.7c9.4,0,16.1-2.1,20-6.3c3.4-3.6,5.2-9.5,5.2-17.4v-6.9c0-7.7-2.7-12.8-8.1-15.3
			l1.1-3.1h10.3c6.5,0,9.7,4.7,9.7,14.1v10.8c0,20.3-11.1,30.4-33.4,30.4h-14v3.2c0,22.7,13,34.1,39.1,34.1h1
			c13.9,0,24.5-3.4,31.7-10.2c7.3-6.8,11-16.1,11-28.1V19.8c0-8.1-2.7-13.2-8.2-15.3l1.2-3.1h10c6.7,0,10.1,4.7,10.1,14.1V52.4z"/>
		<path class="st0" d="M379.2,101.5h-10.8c-3.9,0-5.8-3.1-5.8-9.4V45.3c0-24.9-11.5-37.3-34.4-37.3c-13.5,0-23.2,3.4-29,10.1
			l-1.3-0.2V5.3c7-3.5,17.6-5.3,31.6-5.3c31,0,46.5,14.3,46.5,43v45.1c0,6.5,1.4,10.4,4.1,11.8L379.2,101.5z M314.6,101.5h-11
			c-3.8,0-5.7-3.1-5.7-9.4V56.7c0-3.8,2.1-7,6.3-9.4l5.5-3.2l1.5,0.8v43.2c0,6.5,1.4,10.4,4.1,11.8L314.6,101.5z"/>
	</g>
	<g>
		<path class="st0" d="M54.5,151.7h-26l-0.1-1.8l9.8-13.5c2.2-3.1,3.3-5.4,3.3-6.9c0-2.5-1.6-3.8-4.8-3.8c-2.3,0-4.2,0.9-5.5,2.8
			h-1.2v-8.4c1.6-1.3,4.6-1.9,8.9-1.9c3.6,0,6.6,0.6,8.9,1.8c3.1,1.6,4.6,4.3,4.6,8.1c0,2.9-1.7,6.4-5,10.4L43,144v0.2h7.6
			c1.4,0,2.3,0.7,2.7,2.2l1.3,5V151.7z"/>
		<path class="st0" d="M84.6,135.3c0,5.5-1.2,9.7-3.7,12.7c-2.5,2.9-5.9,4.4-10.3,4.4c-2.2,0-4.2-0.4-5.9-1.1
			c-1.7-0.7-3.2-1.8-4.4-3.3c-1.2-1.4-2.1-3.2-2.7-5.3c-0.6-2.1-0.9-4.5-0.9-7.3c0-5.1,1.2-9.2,3.7-12.4c2.4-3.2,5.9-4.7,10.3-4.7
			C80,118.2,84.6,123.9,84.6,135.3z M73.9,135.2c0-4.1-0.3-6.9-1-8.3c-0.5-1-1.3-1.5-2.4-1.5c-1.1,0-1.9,0.5-2.3,1.5
			c-0.5,1.3-0.8,4-0.8,8c0,4.3,0.3,7.2,0.8,8.6c0.4,1.1,1.2,1.7,2.4,1.7c1.1,0,1.9-0.6,2.4-1.8C73.6,142,73.9,139.2,73.9,135.2z"/>
		<path class="st0" d="M110.6,151.7H89.8V149c3.8-1.3,5.7-2.9,5.7-4.7v-15.8c-0.9,0.3-2.2,0.4-3.9,0.4c-0.8,0-1.4-0.1-1.8-0.2v-3.4
			c1.2-0.5,2.6-1.3,4.1-2.4c1.7-1.3,2.9-2.7,3.8-4h7.3l0.8,0.8v24.7c0,1.5,1.6,3.2,4.8,4.9V151.7z"/>
		<path class="st0" d="M142.1,140.6c0,4-1.4,7-4.2,9.1c-2.4,1.8-5.4,2.7-9.1,2.7c-8.8,0-13.1-3.9-13.1-11.7v-5.4
			c0-11.2,5.1-16.8,15.4-16.8c3.3,0,5.9,0.6,7.8,1.7v6.9h-0.9c-1.3-1.1-3.3-1.7-6-1.7c-1,0-1.9,0.2-2.6,0.5
			c-0.8,0.3-1.4,0.8-1.9,1.4c-0.5,0.6-0.9,1.3-1.1,2.1c-0.3,0.8-0.4,1.7-0.4,2.7c1.3-1,3.1-1.4,5.5-1.4c1.7,0,3.2,0.2,4.5,0.7
			c1.3,0.4,2.5,1.1,3.4,1.9c0.9,0.9,1.6,1.9,2.1,3.2C141.8,137.5,142.1,139,142.1,140.6z M132.4,140.7c0-3.2-1.2-4.7-3.6-4.7
			c-1.3,0-2.3,0.3-3,1v4c0,3.3,1,5,3.1,5C131.2,146,132.4,144.2,132.4,140.7z"/>
		<path class="st0" d="M189.7,121.8c-0.6,0.7-0.9,2.1-0.9,4.2v12.2c0,9.1-4.5,13.7-13.6,13.7c-1.7,0-3-0.2-3.9-0.6v-6.1
			c0.2,0.1,0.7,0.2,1.5,0.2c3.3,0,5-2,5-6.1v-9.3c0-1,0.2-1.8,0.6-2.2h-19.1c-1.2,0-2-0.6-2.3-1.7l-1.8-6.1h33.7L189.7,121.8z
			 M170.2,133.4L170.2,133.4c-1.1,0.6-1.7,2.1-1.7,4.5v17.4c0,1.9-0.9,3.3-2.6,4.2l-7,3.5h-1.2v-26.5c0-3,1.4-4.5,4.1-4.5h7.8
			L170.2,133.4z"/>
		<path class="st0" d="M207.6,151.7h-10.1c-1.2,0-1.8-1-1.8-3v-21.1c0-3.5-0.9-5.4-2.6-5.8l0.6-1.7h8.8c2.7,0,4.1,1.8,4.1,5.3v20.9
			c0,2.2,0.6,3.6,1.7,4.1L207.6,151.7z"/>
		<path class="st0" d="M254.4,135.8c0,5.3-1.8,9.3-5.4,12.2c-3.6,2.9-8.8,4.3-15.6,4.3c-7.7,0-13-1.4-16-4.1
			c-2.7-2.5-4.1-6.7-4.1-12.6v-8.6c0-2.9-0.8-4.7-2.3-5.2l0.6-1.7h8.3c1.5,0,2.5,0.5,3,1.6c0.5,0.9,0.8,2.3,0.8,4.4V137
			c0,3,0.7,5.2,2.2,6.6c1.5,1.4,3.8,2.2,7.1,2.2h0.2c1.9,0,3.5-0.2,4.9-0.5c1.4-0.3,2.5-0.9,3.4-1.6c0.9-0.7,1.6-1.7,2-2.8
			c0.4-1.1,0.6-2.5,0.6-4.1v-9.7c0-3-0.9-4.7-2.8-5.2l0.6-1.7h8.7c1.5,0,2.5,0.5,3,1.5c0.5,1,0.8,2.6,0.8,4.9V135.8z M238.7,136.2
			c0,1.8-0.4,3.1-1.1,3.9c-0.7,0.8-2,1.4-3.8,1.8l-4.3,0.9l-0.4-0.2v-15.4c0-2.9-0.9-4.7-2.7-5.3l0.6-1.7h7.6c1.5,0,2.5,0.5,3.2,1.4
			c0.6,1,0.9,2.5,0.9,4.7V136.2z"/>
		<path class="st0" d="M292.2,151.7H282c-1.4,0-2.2-0.8-2.2-2.3v-13.8c0-5.7-3.2-8.6-9.5-8.6c-3.4,0-6.3,1.1-8.9,3.4h-0.9v-8.9
			c4.1-1.1,8.2-1.7,12.3-1.7c6.1,0,10.6,1.1,13.6,3.3c3,2.3,4.5,5.9,4.5,11v12.4c0,2.1,0.7,3.5,2,4.1L292.2,151.7z M272.5,151.7
			h-9.6c-1.5,0-2.2-0.8-2.2-2.3v-10.3c0-2.1,1-3.4,3-3.9l6.9-2l0.8,0.6v12.5c0,2.2,0.6,3.6,1.7,4.1L272.5,151.7z"/>
		<path class="st0" d="M334,130.1c0,3.8-2,7.4-6.1,10.9l-2.4,2.1c-1.7,1.5-2.5,3.1-2.5,4.8v0.1c0,1,0.3,1.8,0.8,2.2l-0.6,1.5H313
			c-0.3,0-0.5-0.1-0.8-0.3c-0.2-0.2-0.5-0.5-0.6-0.8c-0.2-0.3-0.3-0.7-0.4-1.2c-0.1-0.5-0.2-0.9-0.2-1.5c0-2.1,1.2-4.2,3.5-6.3
			l4.4-4c2.2-1.9,3.3-3.7,3.3-5.3c0-3-1.9-4.5-5.6-4.5h-10.5v-12.4c0-2.1-0.5-3.4-1.5-3.8l0.6-1.2h8.4c2.2,0,3.3,1.5,3.3,4.4v5.2
			h5.6C330.2,120.1,334,123.4,334,130.1z"/>
		<path class="st0" d="M380,135.8c0,5.3-1.8,9.3-5.4,12.2c-3.6,2.9-8.8,4.3-15.6,4.3c-7.7,0-13-1.4-16-4.1
			c-2.7-2.5-4.1-6.7-4.1-12.6v-8.6c0-2.9-0.8-4.7-2.3-5.2l0.6-1.7h8.3c1.5,0,2.5,0.5,3,1.6c0.5,0.9,0.8,2.3,0.8,4.4V137
			c0,3,0.7,5.2,2.2,6.6c1.5,1.4,3.8,2.2,7.1,2.2h0.2c1.9,0,3.5-0.2,4.9-0.5c1.4-0.3,2.5-0.9,3.4-1.6c0.9-0.7,1.6-1.7,2-2.8
			c0.4-1.1,0.6-2.5,0.6-4.1v-9.7c0-3-0.9-4.7-2.8-5.2l0.6-1.7h8.7c1.5,0,2.5,0.5,3,1.5c0.5,1,0.8,2.6,0.8,4.9V135.8z M364.3,136.2
			c0,1.8-0.4,3.1-1.1,3.9c-0.7,0.8-2,1.4-3.8,1.8l-4.3,0.9l-0.4-0.2v-15.4c0-2.9-0.9-4.7-2.7-5.3l0.6-1.7h7.6c1.5,0,2.5,0.5,3.2,1.4
			c0.6,1,0.9,2.5,0.9,4.7V136.2z"/>
	</g>
</g>
</svg>
