<?xml version="1.0" encoding="utf-8"?>
<!-- Generator: Adobe Illustrator 21.1.0, SVG Export Plug-In . SVG Version: 6.00 Build 0)  -->
<svg version="1.1" id="Layer_1" xmlns="http://www.w3.org/2000/svg" xmlns:xlink="http://www.w3.org/1999/xlink" x="0px" y="0px"
	 viewBox="0 0 150 80.9" style="enable-background:new 0 0 150 80.9;" xml:space="preserve">
<g>
	<g>
		<path d="M0,0h19.7c5.4,0,9.3,1,11.8,3.1c2.5,2.1,3.7,5.4,3.7,10.1c0,6.1-1.8,11.5-5.5,16.3c-3.7,4.8-8.9,8.6-15.8,11.4v-9.2
			c4-1.9,7.1-4.4,9.3-7.5c2.2-3.1,3.3-6.5,3.3-10.1c0-2.4-0.6-4-1.8-5c-1.2-1-3.3-1.4-6.2-1.4H0V0z M10.2,15.3v36.6H1.6V15.3H10.2z"
			/>
		<path d="M44.3,0h8.6v21h-8.6V0z"/>
		<path d="M81.3,0h8.8l-1,10.9c-0.3,3-0.7,5.4-1.4,7.1c-0.7,1.7-1.7,3.1-3,4.1s-3.3,1.8-6,2.5L74,25.7l1.3,6.5h0.8
			c5.3,0,9.4-0.5,12.3-1.4c2.9-0.9,5-2.4,6.5-4.4c1.4-2,2.4-5.1,2.8-9.3l2-17.2h8.9l-2,17c-0.7,5.5-1.7,9.6-3.1,12.3
			c-1.4,2.7-3.4,4.9-6,6.3c-2.6,1.5-6.2,2.6-10.7,3.2c-4.5,0.7-10.9,1-19,1L60.3,0h9l3.5,19.1l2.3-0.4c1.4-0.3,2.5-0.7,3.2-1.4
			c0.7-0.7,1.2-1.7,1.6-3c0.4-1.3,0.7-3.7,1-7.1L81.3,0z"/>
		<path d="M150,39.6h-8.6v-23c0-3.3-0.7-5.5-2.1-6.9c-1.4-1.3-3.8-2-7.2-2h-16.2V0h16.7c6.3,0,10.7,1.3,13.4,3.9s4,6.8,4,12.8V39.6z
			 M125.2,39.6h-8.6v-24h8.6V39.6z"/>
	</g>
	<g>
		<path d="M0,76.6v-2.2c0.4-0.9,1-1.8,1.8-2.7c0.8-0.9,1.7-1.8,2.9-2.7c1.1-0.9,1.9-1.6,2.3-2.2c0.4-0.6,0.7-1.2,0.7-1.7
			c0-1.4-0.7-2.1-2.1-2.1c-0.7,0-1.2,0.2-1.5,0.5s-0.6,0.9-0.7,1.6L0.1,65c0.2-1.5,0.7-2.6,1.6-3.4s2.2-1.2,3.7-1.2
			c1.7,0,3,0.4,3.9,1.2c0.9,0.8,1.4,1.9,1.4,3.3c0,0.7-0.1,1.4-0.4,2c-0.3,0.6-0.7,1.2-1.1,1.7c-0.5,0.5-1,1-1.5,1.4
			c-0.6,0.4-1.1,0.9-1.6,1.3c-0.5,0.4-1,0.8-1.4,1.3c-0.4,0.4-0.8,0.9-1,1.4h7.3v2.6H0z"/>
		<path d="M23.8,68.6c0,2.7-0.5,4.7-1.4,6.1c-0.9,1.4-2.3,2.1-4.1,2.1c-3.6,0-5.4-2.7-5.4-8.1c0-1.9,0.2-3.4,0.6-4.6s1-2.1,1.8-2.7
			c0.8-0.6,1.8-0.9,3.1-0.9c1.9,0,3.2,0.7,4.1,2C23.4,63.9,23.8,65.9,23.8,68.6z M20.7,68.6c0-1.5-0.1-2.6-0.2-3.4
			c-0.1-0.8-0.4-1.4-0.7-1.7C19.5,63.1,19,63,18.4,63c-0.6,0-1.1,0.2-1.4,0.5c-0.3,0.4-0.6,0.9-0.7,1.7c-0.1,0.8-0.2,1.9-0.2,3.4
			c0,1.4,0.1,2.6,0.2,3.4c0.1,0.8,0.4,1.4,0.7,1.7c0.3,0.4,0.8,0.5,1.4,0.5c0.6,0,1.1-0.2,1.4-0.6c0.3-0.4,0.6-1,0.7-1.8
			S20.7,70,20.7,68.6z"/>
		<path d="M26.2,76.6v-2.3h3.9V63.4l-3.8,2.4v-2.5l4-2.6h3v13.5h3.6v2.3H26.2z"/>
		<path d="M49.4,63.2c-0.7,1.1-1.4,2.2-2,3.3c-0.6,1.1-1.2,2.1-1.7,3.2c-0.5,1.1-0.8,2.2-1.1,3.3s-0.4,2.3-0.4,3.6h-3.3
			c0-1.3,0.2-2.6,0.5-3.8s0.8-2.5,1.5-3.8c0.7-1.3,1.8-3.2,3.5-5.6h-7.9v-2.6h10.8V63.2z"/>
		<path d="M58.1,62.6h6.9c1.9,0,3.3,0.4,4.2,1.1s1.3,1.9,1.3,3.5c0,2.1-0.6,4-1.9,5.7c-1.3,1.7-3.1,3-5.5,4v-3.2
			c1.4-0.7,2.5-1.5,3.3-2.6c0.8-1.1,1.2-2.3,1.2-3.6c0-0.8-0.2-1.4-0.6-1.8s-1.2-0.5-2.2-0.5h-6.5V62.6z M61.8,68v12.9h-3V68H61.8z"
			/>
		<path d="M73.8,62.6h3v13.9h-3V62.6z"/>
		<path d="M86.8,62.6h3.1l-0.3,3.8c-0.1,1.1-0.3,1.9-0.5,2.5s-0.6,1.1-1,1.4c-0.4,0.3-1.2,0.6-2.1,0.9l-1.7,0.4l0.5,2.3h0.3
			c1.9,0,3.3-0.2,4.3-0.5c1-0.3,1.8-0.8,2.3-1.5s0.8-1.8,1-3.3l0.7-6.1h3.1l-0.7,6c-0.2,1.9-0.6,3.4-1.1,4.3c-0.5,1-1.2,1.7-2.1,2.2
			c-0.9,0.5-2.2,0.9-3.8,1.1c-1.6,0.2-3.8,0.4-6.7,0.4l-2.6-14.1h3.2l1.2,6.7l0.8-0.2c0.5-0.1,0.9-0.3,1.1-0.5
			c0.2-0.2,0.4-0.6,0.6-1.1c0.1-0.5,0.2-1.3,0.3-2.5L86.8,62.6z"/>
		<path d="M111,76.6h-3v-8.1c0-1.1-0.2-2-0.7-2.4s-1.3-0.7-2.5-0.7H99v-2.7h5.9c2.2,0,3.8,0.5,4.7,1.4c0.9,0.9,1.4,2.4,1.4,4.5V76.6
			z M102.2,76.6h-3v-8.5h3V76.6z"/>
		<path d="M121.4,74c2.2-0.7,3.8-1.6,5-2.8c1.2-1.2,1.8-2.4,1.8-3.8c0-1.3-0.8-2-2.5-2H120v-7.5h3.1v4.8h3.1c3.4,0,5.1,1.5,5.1,4.4
			c0,2.3-0.9,4.4-2.6,6.1c-1.7,1.8-4.2,3.1-7.3,4V74z"/>
		<path d="M140.4,62.6h3.1l-0.3,3.8c-0.1,1.1-0.3,1.9-0.5,2.5s-0.6,1.1-1,1.4c-0.4,0.3-1.2,0.6-2.1,0.9l-1.7,0.4l0.5,2.3h0.3
			c1.9,0,3.3-0.2,4.3-0.5s1.8-0.8,2.3-1.5c0.5-0.7,0.8-1.8,1-3.3l0.7-6.1h3.1l-0.7,6c-0.2,1.9-0.6,3.4-1.1,4.3
			c-0.5,1-1.2,1.7-2.1,2.2c-0.9,0.5-2.2,0.9-3.8,1.1c-1.6,0.2-3.8,0.4-6.7,0.4L133,62.6h3.2l1.2,6.7l0.8-0.2
			c0.5-0.1,0.9-0.3,1.1-0.5c0.2-0.2,0.4-0.6,0.6-1.1c0.1-0.5,0.2-1.3,0.3-2.5L140.4,62.6z"/>
	</g>
</g>
</svg>
