<?xml version="1.0" encoding="utf-8"?>
<!-- Generator: Adobe Illustrator 21.1.0, SVG Export Plug-In . SVG Version: 6.00 Build 0)  -->
<svg version="1.1" id="Layer_1" xmlns="http://www.w3.org/2000/svg" xmlns:xlink="http://www.w3.org/1999/xlink" x="0px" y="0px"
	 viewBox="0 0 200 85.5" style="enable-background:new 0 0 200 85.5;" xml:space="preserve">
<g>
	<g>
		<path d="M32.2,79.7H18.9l0-0.9l5-7c1.1-1.6,1.7-2.8,1.7-3.6c0-1.3-0.8-1.9-2.5-1.9c-1.2,0-2.1,0.5-2.8,1.4h-0.6v-4.3
			c0.8-0.7,2.4-1,4.6-1c1.9,0,3.4,0.3,4.6,0.9c1.6,0.8,2.4,2.2,2.4,4.2c0,1.5-0.9,3.3-2.6,5.3l-2.4,2.8v0.1h3.9
			c0.7,0,1.2,0.4,1.4,1.1l0.7,2.6V79.7z"/>
		<path d="M47.7,71.2c0,2.8-0.6,5-1.9,6.5c-1.3,1.5-3,2.3-5.3,2.3c-1.1,0-2.2-0.2-3.1-0.6c-0.9-0.4-1.6-0.9-2.2-1.7
			c-0.6-0.7-1.1-1.7-1.4-2.7c-0.3-1.1-0.5-2.3-0.5-3.8c0-2.6,0.6-4.7,1.9-6.4c1.3-1.6,3-2.4,5.3-2.4C45.4,62.4,47.7,65.4,47.7,71.2z
			 M42.2,71.2c0-2.1-0.2-3.5-0.5-4.3c-0.3-0.5-0.7-0.8-1.2-0.8c-0.6,0-1,0.3-1.2,0.8c-0.3,0.7-0.4,2-0.4,4.1c0,2.2,0.1,3.7,0.4,4.5
			c0.2,0.6,0.6,0.9,1.2,0.9c0.6,0,1-0.3,1.2-0.9C42.1,74.7,42.2,73.2,42.2,71.2z"/>
		<path d="M61.1,79.7H50.4v-1.4c2-0.7,2.9-1.5,2.9-2.4v-8.1c-0.5,0.1-1.1,0.2-2,0.2c-0.4,0-0.7,0-0.9-0.1v-1.8
			c0.6-0.2,1.3-0.6,2.1-1.2c0.9-0.7,1.5-1.4,1.9-2.1h3.8l0.4,0.4v12.7c0,0.8,0.8,1.6,2.5,2.5V79.7z"/>
		<path d="M78.1,63.7c-0.2,0.3-0.5,0.7-0.9,1.3s-0.7,1.3-1.2,2.2c-1.9,3.6-2.8,7-2.8,10c0,0.7,0.4,1.2,1.1,1.6l-0.2,0.9h-5.4
			c-0.7,0-1-0.5-1-1.4c0-1.5,0.1-2.5,0.2-3.1c0.3-2,1-4,2.1-5.8c0.1-0.3,0.3-0.6,0.6-1c0.3-0.4,0.6-0.9,0.9-1.4v-0.2h-7.8v-0.3
			l1.1-2.7c0.2-0.7,0.7-1,1.3-1h11.8L78.1,63.7z"/>
		<path d="M101.9,64.2c-0.3,0.4-0.5,1.1-0.5,2.2v6.3c0,4.7-2.3,7.1-7,7.1c-0.9,0-1.5-0.1-2-0.3v-3.1c0.1,0.1,0.4,0.1,0.8,0.1
			c1.7,0,2.6-1,2.6-3.1v-4.8c0-0.5,0.1-0.9,0.3-1.1h-9.9c-0.6,0-1-0.3-1.2-0.9l-0.9-3.1h17.4L101.9,64.2z M91.9,70.3L91.9,70.3
			c-0.6,0.3-0.9,1.1-0.9,2.3v8.9c0,1-0.4,1.7-1.3,2.2l-3.6,1.8h-0.6V71.8c0-1.6,0.7-2.3,2.1-2.3h4L91.9,70.3z"/>
		<path d="M111.2,79.7h-5.2c-0.6,0-0.9-0.5-0.9-1.5V67.3c0-1.8-0.4-2.8-1.3-3l0.3-0.9h4.5c1.4,0,2.1,0.9,2.1,2.7v10.8
			c0,1.1,0.3,1.8,0.9,2.1L111.2,79.7z"/>
		<path d="M135.3,71.5c0,2.7-0.9,4.8-2.8,6.3c-1.8,1.5-4.5,2.2-8.1,2.2c-4,0-6.7-0.7-8.2-2.1c-1.4-1.3-2.1-3.4-2.1-6.5V67
			c0-1.5-0.4-2.4-1.2-2.7l0.3-0.9h4.3c0.8,0,1.3,0.3,1.6,0.8c0.3,0.4,0.4,1.2,0.4,2.3v5.6c0,1.5,0.4,2.7,1.1,3.4
			c0.8,0.7,2,1.1,3.7,1.1h0.1c1,0,1.8-0.1,2.5-0.3c0.7-0.2,1.3-0.5,1.8-0.8c0.5-0.4,0.8-0.9,1-1.4c0.2-0.6,0.3-1.3,0.3-2.1v-5
			c0-1.5-0.5-2.4-1.5-2.7l0.3-0.9h4.5c0.8,0,1.3,0.3,1.5,0.8c0.3,0.5,0.4,1.4,0.4,2.5V71.5z M127.1,71.7c0,0.9-0.2,1.6-0.5,2
			c-0.4,0.4-1,0.7-2,0.9l-2.2,0.4l-0.2-0.1V67c0-1.5-0.5-2.4-1.4-2.7l0.3-0.9h3.9c0.8,0,1.3,0.2,1.6,0.7c0.3,0.5,0.5,1.3,0.5,2.4
			V71.7z"/>
		<path d="M154.7,79.7h-5.2c-0.7,0-1.1-0.4-1.1-1.2v-7.1c0-3-1.6-4.4-4.9-4.4c-1.7,0-3.3,0.6-4.6,1.7h-0.5V64
			c2.1-0.6,4.2-0.9,6.3-0.9c3.2,0,5.5,0.6,7,1.7c1.6,1.2,2.3,3.1,2.3,5.7v6.4c0,1.1,0.3,1.8,1,2.1L154.7,79.7z M144.6,79.7h-5
			c-0.8,0-1.1-0.4-1.1-1.2v-5.3c0-1.1,0.5-1.7,1.6-2l3.6-1l0.4,0.3v6.5c0,1.1,0.3,1.8,0.9,2.1L144.6,79.7z"/>
		<path d="M176.3,68.5c0,2-1,3.8-3.1,5.6l-1.2,1.1c-0.9,0.8-1.3,1.6-1.3,2.5v0.1c0,0.5,0.1,0.9,0.4,1.1l-0.3,0.8h-5.2
			c-0.1,0-0.3,0-0.4-0.1c-0.1-0.1-0.2-0.2-0.3-0.4c-0.1-0.2-0.2-0.4-0.2-0.6c-0.1-0.2-0.1-0.5-0.1-0.8c0-1.1,0.6-2.2,1.8-3.2
			l2.3-2.1c1.1-1,1.7-1.9,1.7-2.7c0-1.6-1-2.3-2.9-2.3H162V61c0-1.1-0.3-1.7-0.8-1.9l0.3-0.6h4.3c1.1,0,1.7,0.8,1.7,2.3v2.7h2.9
			C174.3,63.4,176.3,65.1,176.3,68.5z"/>
		<path d="M200,71.5c0,2.7-0.9,4.8-2.8,6.3c-1.8,1.5-4.5,2.2-8.1,2.2c-4,0-6.7-0.7-8.2-2.1c-1.4-1.3-2.1-3.4-2.1-6.5V67
			c0-1.5-0.4-2.4-1.2-2.7l0.3-0.9h4.3c0.8,0,1.3,0.3,1.6,0.8c0.3,0.4,0.4,1.2,0.4,2.3v5.6c0,1.5,0.4,2.7,1.1,3.4
			c0.8,0.7,2,1.1,3.7,1.1h0.1c1,0,1.8-0.1,2.5-0.3c0.7-0.2,1.3-0.5,1.8-0.8c0.5-0.4,0.8-0.9,1-1.4c0.2-0.6,0.3-1.3,0.3-2.1v-5
			c0-1.5-0.5-2.4-1.5-2.7l0.3-0.9h4.5c0.8,0,1.3,0.3,1.5,0.8c0.3,0.5,0.4,1.4,0.4,2.5V71.5z M191.9,71.7c0,0.9-0.2,1.6-0.5,2
			c-0.4,0.4-1,0.7-2,0.9l-2.2,0.4l-0.2-0.1V67c0-1.5-0.5-2.4-1.4-2.7l0.3-0.9h3.9c0.8,0,1.3,0.2,1.6,0.7c0.3,0.5,0.5,1.3,0.5,2.4
			V71.7z"/>
	</g>
	<g>
		<path d="M48.8,1.2c-1,1-1.5,2.8-1.5,5.5v24.8c0,14.6-7.1,21.9-21.4,21.9c-2.2,0-3.9-0.5-5.1-1.4v-3.5l0.6-0.2
			c0.9,0.5,2.3,0.8,4.1,0.8c9.8,0,14.7-5.6,14.7-16.8V8.2c0-1.1,0.2-1.9,0.5-2.4H2.4L0,2V0.8h48.8V1.2z M12.8,21
			c-1,0.6-1.6,1.2-1.8,1.6c-0.4,0.8-0.6,2-0.6,3.8v38.7c0,2.6-1,4.8-2.9,6.4l-3,2.6H3.6V25.3c0-3.3,1-4.9,3-4.9h5.7L12.8,21z"/>
		<path d="M70.2,21.2c0,2.2-0.9,4-2.6,5.5l-3.8,3.4l-0.6-0.4v-19c0-4.5-1.5-7.3-4.6-8.4l0.6-1.5h5.9c3.4,0,5.1,2.3,5.1,7V21.2z"/>
		<path d="M142.4,27.6c0,9-2.8,15.8-8.4,20.3c-5.1,4.2-12.1,6.3-20.9,6.3c-4.8,0-9-0.5-12.5-1.4c-3.5-1-6.4-2.4-8.8-4.4
			c-2.3-2-4-4.5-5.2-7.6c-1.1-3.1-1.7-6.8-1.7-11V10.4c0-4.2-1.4-6.9-4.2-8.1l0.6-1.6h5.3c3.5,0,5.2,2.5,5.2,7.4v15.4
			c0,2,1.6,3,4.7,3c4.9,0,8.5-1.1,10.5-3.3c1.8-1.9,2.7-5,2.7-9.2v-3.6c0-4.1-1.4-6.8-4.2-8.1l0.6-1.6h5.4c3.4,0,5.1,2.5,5.1,7.4
			v5.7c0,10.7-5.9,16-17.6,16H92v1.7c0,12,6.9,18,20.6,18h0.5c7.3,0,12.9-1.8,16.7-5.3c3.9-3.6,5.8-8.5,5.8-14.8V10.4
			c0-4.3-1.4-7-4.3-8.1l0.7-1.6h5.2c3.5,0,5.3,2.5,5.3,7.4V27.6z"/>
		<path d="M199.6,53.4h-5.7c-2.1,0-3.1-1.6-3.1-4.9V23.9c0-13.1-6-19.6-18.1-19.6c-7.1,0-12.2,1.8-15.3,5.3l-0.7-0.1V2.8
			C160.4,0.9,166,0,173.4,0c16.3,0,24.5,7.5,24.5,22.6v23.8c0,3.4,0.7,5.5,2.2,6.2L199.6,53.4z M165.6,53.4h-5.8c-2,0-3-1.6-3-4.9
			V29.9c0-2,1.1-3.7,3.3-4.9l2.9-1.7l0.8,0.4v22.7c0,3.4,0.7,5.5,2.2,6.2L165.6,53.4z"/>
	</g>
</g>
</svg>
