<svg style="position: absolute; width: 0; height: 0; overflow: hidden;" version="1.1" xmlns="http://www.w3.org/2000/svg" xmlns:xlink="http://www.w3.org/1999/xlink">
<defs>
<symbol id="icon-date" viewBox="0 0 29 32">
<title>date</title>
<path class="path1" d="M9.38 19.269h-6.259c-0.256 0-0.463-0.207-0.463-0.463v-6.639c0-0.256 0.207-0.463 0.463-0.463h6.259c0.256 0 0.463 0.207 0.463 0.463v6.648c-0.005 0.252-0.21 0.454-0.463 0.454-0 0-0 0-0 0zM3.583 18.343h5.333v-5.713h-5.333z"></path>
<path class="path2" d="M17.713 19.269h-6.269c-0.256 0-0.463-0.207-0.463-0.463v-6.639c0-0.256 0.207-0.463 0.463-0.463h6.259c0.256 0 0.463 0.207 0.463 0.463v6.648c-0.005 0.248-0.205 0.449-0.453 0.454zM11.917 18.343h5.333v-5.713h-5.343z"></path>
<path class="path3" d="M26.037 19.269h-6.269c-0.256 0-0.463-0.207-0.463-0.463v-6.639c0-0.256 0.207-0.463 0.463-0.463h6.259c0.256 0 0.463 0.207 0.463 0.463v6.648c-0.005 0.248-0.205 0.449-0.453 0.454zM20.241 18.343h5.333v-5.713h-5.343z"></path>
<path class="path4" d="M9.38 28.796h-6.259c-0.256 0-0.463-0.207-0.463-0.463v-6.648c0-0.256 0.207-0.463 0.463-0.463h6.259c0.256 0 0.463 0.207 0.463 0.463v6.648c0 0.256-0.207 0.463-0.463 0.463zM3.583 27.87h5.333v-5.722h-5.333z"></path>
<path class="path5" d="M17.713 28.796h-6.269c-0.256 0-0.463-0.207-0.463-0.463v-6.648c0-0.256 0.207-0.463 0.463-0.463h6.259c0.256 0 0.463 0.207 0.463 0.463v6.648c0 0 0 0 0 0 0 0.252-0.202 0.458-0.453 0.463zM11.917 27.87h5.333v-5.722h-5.343z"></path>
<path class="path6" d="M26.037 28.796h-6.269c-0.256 0-0.463-0.207-0.463-0.463v-6.648c0-0.256 0.207-0.463 0.463-0.463h6.259c0.256 0 0.463 0.207 0.463 0.463v6.648c0 0 0 0 0 0 0 0.252-0.202 0.458-0.453 0.463zM20.241 27.87h5.333v-5.722h-5.343z"></path>
<path class="path7" d="M28.361 32h-27.898c-0.256 0-0.463-0.207-0.463-0.463v-22.583c0-0.256 0.207-0.463 0.463-0.463h27.898c0.256 0 0.463 0.207 0.463 0.463v22.583c0 0.256-0.207 0.463-0.463 0.463zM0.926 31.074h26.972v-21.657h-26.972z"></path>
<path class="path8" d="M19.093 4.111h-9.361c-0.256 0-0.463-0.207-0.463-0.463s0.207-0.463 0.463-0.463h9.361c0.256 0 0.463 0.207 0.463 0.463s-0.207 0.463-0.463 0.463z"></path>
<path class="path9" d="M28.361 9.417h-27.898c-0.256 0-0.463-0.207-0.463-0.463v-5.306c0-0.256 0.207-0.463 0.463-0.463h4.509c0.256 0 0.463 0.207 0.463 0.463s-0.207 0.463-0.463 0.463h-4.046v4.38h26.972v-4.38h-3.546c-0.256 0-0.463-0.207-0.463-0.463s0.207-0.463 0.463-0.463h4c0.256 0 0.463 0.207 0.463 0.463v5.306c0 0 0 0 0 0 0 0.252-0.202 0.458-0.453 0.463z"></path>
<path class="path10" d="M9.731 6.769h-4.759c-0.256 0-0.463-0.207-0.463-0.463v-5.843c0-0.256 0.207-0.463 0.463-0.463h4.759c0.256 0 0.463 0.207 0.463 0.463v5.843c0 0.256-0.207 0.463-0.463 0.463zM5.435 5.843h3.824v-4.917h-3.824z"></path>
<path class="path11" d="M23.852 6.769h-4.759c-0.256 0-0.463-0.207-0.463-0.463v-5.843c0-0.256 0.207-0.463 0.463-0.463h4.759c0.256 0 0.463 0.207 0.463 0.463v5.843c0 0.256-0.207 0.463-0.463 0.463zM19.556 5.843h3.833v-4.917h-3.833z"></path>
</symbol>
<symbol id="icon-location" viewBox="0 0 24 32">
<title>location</title>
<path class="path1" d="M12.223 32c-0.559-0.008-1.055-0.269-1.38-0.674-3.26-3.957-10.843-13.693-10.843-19.103 0-6.75 5.472-12.223 12.223-12.223s12.223 5.472 12.223 12.223c0 5.383-7.582 15.146-10.84 19.1-0.328 0.408-0.824 0.67-1.382 0.677zM12.223 0.928c-6.236 0.005-11.289 5.059-11.295 11.294 0 5.226 8.139 15.49 10.626 18.506 0.154 0.2 0.394 0.328 0.664 0.328s0.509-0.128 0.662-0.326c2.498-3.027 10.628-13.292 10.628-18.508-0.005-6.232-5.054-11.284-11.284-11.295zM12.223 17.132c-2.891 0-5.234-2.344-5.234-5.234s2.343-5.234 5.234-5.234c2.891 0 5.234 2.343 5.234 5.234s-2.344 5.234-5.234 5.234zM12.223 7.601c-2.378 0-4.306 1.928-4.306 4.306s1.928 4.306 4.306 4.306c2.378 0 4.306-1.928 4.306-4.306s-1.928-4.306-4.306-4.306z"></path>
</symbol>
<symbol id="icon-time" viewBox="0 0 32 32">
<title>time</title>
<path class="path1" d="M16 32c-8.837 0-16-7.163-16-16s7.163-16 16-16c8.837 0 16 7.163 16 16-0.011 8.832-7.168 15.989-15.999 16zM16 0.928c-8.324 0-15.072 6.748-15.072 15.072s6.748 15.072 15.072 15.072c8.324 0 15.072-6.748 15.072-15.072-0.011-8.32-6.752-15.061-15.071-15.072z"></path>
<path class="path2" d="M16 6.636c-0.256 0-0.464-0.208-0.464-0.464v-5.708c0-0.256 0.208-0.464 0.464-0.464s0.464 0.208 0.464 0.464v5.708c0 0.256-0.208 0.464-0.464 0.464z"></path>
<path class="path3" d="M16 32c-0.256 0-0.464-0.208-0.464-0.464v-5.708c0-0.256 0.208-0.464 0.464-0.464s0.464 0.208 0.464 0.464v5.726c-0.010 0.248-0.214 0.445-0.464 0.445-0 0-0 0-0 0z"></path>
<path class="path4" d="M31.555 16.464h-5.726c-0.256 0-0.464-0.208-0.464-0.464s0.208-0.464 0.464-0.464h5.726c0.256 0 0.464 0.208 0.464 0.464s-0.208 0.464-0.464 0.464z"></path>
<path class="path5" d="M6.172 16.464h-5.708c-0.256 0-0.464-0.208-0.464-0.464s0.208-0.464 0.464-0.464h5.708c0.256 0 0.464 0.208 0.464 0.464s-0.208 0.464-0.464 0.464z"></path>
<path class="path6" d="M16 18.561c-0.005 0-0.012 0-0.018 0-1.425 0-2.58-1.155-2.58-2.58s1.155-2.58 2.58-2.58c1.425 0 2.58 1.155 2.58 2.58 0 0.007-0 0.013-0 0.020-0.016 1.407-1.153 2.545-2.56 2.56zM16 14.32c-0.005-0-0.012-0-0.018-0-0.912 0-1.652 0.74-1.652 1.652s0.74 1.652 1.652 1.652c0.903 0 1.636-0.724 1.652-1.623 0-0.002 0-0.002 0-0.002 0-0.906-0.729-1.641-1.632-1.652z"></path>
<path class="path7" d="M14.506 14.97c-0.127-0.002-0.242-0.055-0.325-0.139l-7.981-7.981c-0.084-0.084-0.136-0.201-0.136-0.329 0-0.257 0.209-0.466 0.466-0.466 0.129 0 0.245 0.052 0.329 0.136l7.981 7.981c0.082 0.084 0.133 0.198 0.133 0.325 0 0.254-0.204 0.46-0.457 0.464z"></path>
<path class="path8" d="M17.494 14.97c-0.253-0.004-0.458-0.21-0.458-0.464 0-0.127 0.051-0.241 0.133-0.325l4.176-4.176c0.084-0.084 0.201-0.136 0.329-0.136 0.257 0 0.466 0.209 0.466 0.466 0 0.129-0.052 0.245-0.136 0.329l-4.176 4.186c-0.082 0.075-0.192 0.121-0.313 0.121-0.008 0-0.015-0-0.023-0.001z"></path>
</symbol>
</defs>
</svg>
