<svg style="position: absolute; width: 0; height: 0; overflow: hidden;" version="1.1" xmlns="http://www.w3.org/2000/svg" xmlns:xlink="http://www.w3.org/1999/xlink">
<defs>
<symbol id="date" viewBox="0 0 29 32">
<path class="path1" d="M9.38 19.269h-6.259c-0.256 0-0.463-0.207-0.463-0.463v-6.639c0-0.256 0.207-0.463 0.463-0.463h6.259c0.256 0 0.463 0.207 0.463 0.463v6.648c-0.005 0.252-0.21 0.454-0.463 0.454-0 0-0 0-0 0zM3.583 18.343h5.333v-5.713h-5.333z"></path>
<path class="path2" d="M17.713 19.269h-6.269c-0.256 0-0.463-0.207-0.463-0.463v-6.639c0-0.256 0.207-0.463 0.463-0.463h6.259c0.256 0 0.463 0.207 0.463 0.463v6.648c-0.005 0.248-0.205 0.449-0.453 0.454zM11.917 18.343h5.333v-5.713h-5.343z"></path>
<path class="path3" d="M26.037 19.269h-6.269c-0.256 0-0.463-0.207-0.463-0.463v-6.639c0-0.256 0.207-0.463 0.463-0.463h6.259c0.256 0 0.463 0.207 0.463 0.463v6.648c-0.005 0.248-0.205 0.449-0.453 0.454zM20.241 18.343h5.333v-5.713h-5.343z"></path>
<path class="path4" d="M9.38 28.796h-6.259c-0.256 0-0.463-0.207-0.463-0.463v-6.648c0-0.256 0.207-0.463 0.463-0.463h6.259c0.256 0 0.463 0.207 0.463 0.463v6.648c0 0.256-0.207 0.463-0.463 0.463zM3.583 27.87h5.333v-5.722h-5.333z"></path>
<path class="path5" d="M17.713 28.796h-6.269c-0.256 0-0.463-0.207-0.463-0.463v-6.648c0-0.256 0.207-0.463 0.463-0.463h6.259c0.256 0 0.463 0.207 0.463 0.463v6.648c0 0 0 0 0 0 0 0.252-0.202 0.458-0.453 0.463zM11.917 27.87h5.333v-5.722h-5.343z"></path>
<path class="path6" d="M26.037 28.796h-6.269c-0.256 0-0.463-0.207-0.463-0.463v-6.648c0-0.256 0.207-0.463 0.463-0.463h6.259c0.256 0 0.463 0.207 0.463 0.463v6.648c0 0 0 0 0 0 0 0.252-0.202 0.458-0.453 0.463zM20.241 27.87h5.333v-5.722h-5.343z"></path>
<path class="path7" d="M28.361 32h-27.898c-0.256 0-0.463-0.207-0.463-0.463v-22.583c0-0.256 0.207-0.463 0.463-0.463h27.898c0.256 0 0.463 0.207 0.463 0.463v22.583c0 0.256-0.207 0.463-0.463 0.463zM0.926 31.074h26.972v-21.657h-26.972z"></path>
<path class="path8" d="M19.093 4.111h-9.361c-0.256 0-0.463-0.207-0.463-0.463s0.207-0.463 0.463-0.463h9.361c0.256 0 0.463 0.207 0.463 0.463s-0.207 0.463-0.463 0.463z"></path>
<path class="path9" d="M28.361 9.417h-27.898c-0.256 0-0.463-0.207-0.463-0.463v-5.306c0-0.256 0.207-0.463 0.463-0.463h4.509c0.256 0 0.463 0.207 0.463 0.463s-0.207 0.463-0.463 0.463h-4.046v4.38h26.972v-4.38h-3.546c-0.256 0-0.463-0.207-0.463-0.463s0.207-0.463 0.463-0.463h4c0.256 0 0.463 0.207 0.463 0.463v5.306c0 0 0 0 0 0 0 0.252-0.202 0.458-0.453 0.463z"></path>
<path class="path10" d="M9.731 6.769h-4.759c-0.256 0-0.463-0.207-0.463-0.463v-5.843c0-0.256 0.207-0.463 0.463-0.463h4.759c0.256 0 0.463 0.207 0.463 0.463v5.843c0 0.256-0.207 0.463-0.463 0.463zM5.435 5.843h3.824v-4.917h-3.824z"></path>
<path class="path11" d="M23.852 6.769h-4.759c-0.256 0-0.463-0.207-0.463-0.463v-5.843c0-0.256 0.207-0.463 0.463-0.463h4.759c0.256 0 0.463 0.207 0.463 0.463v5.843c0 0.256-0.207 0.463-0.463 0.463zM19.556 5.843h3.833v-4.917h-3.833z"></path>
</symbol>
<symbol id="location" viewBox="0 0 24 32">
<path class="path1" d="M12.223 32c-0.559-0.008-1.055-0.269-1.38-0.674-3.26-3.957-10.843-13.693-10.843-19.103 0-6.75 5.472-12.223 12.223-12.223s12.223 5.472 12.223 12.223c0 5.383-7.582 15.146-10.84 19.1-0.328 0.408-0.824 0.67-1.382 0.677zM12.223 0.928c-6.236 0.005-11.289 5.059-11.295 11.294 0 5.226 8.139 15.49 10.626 18.506 0.154 0.2 0.394 0.328 0.664 0.328s0.509-0.128 0.662-0.326c2.498-3.027 10.628-13.292 10.628-18.508-0.005-6.232-5.054-11.284-11.284-11.295zM12.223 17.132c-2.891 0-5.234-2.344-5.234-5.234s2.343-5.234 5.234-5.234c2.891 0 5.234 2.343 5.234 5.234s-2.344 5.234-5.234 5.234zM12.223 7.601c-2.378 0-4.306 1.928-4.306 4.306s1.928 4.306 4.306 4.306c2.378 0 4.306-1.928 4.306-4.306s-1.928-4.306-4.306-4.306z"></path>
</symbol>
<symbol id="time" viewBox="0 0 32 32">
<path class="path1" d="M16 32c-8.837 0-16-7.163-16-16s7.163-16 16-16c8.837 0 16 7.163 16 16-0.011 8.832-7.168 15.989-15.999 16zM16 0.928c-8.324 0-15.072 6.748-15.072 15.072s6.748 15.072 15.072 15.072c8.324 0 15.072-6.748 15.072-15.072-0.011-8.32-6.752-15.061-15.071-15.072z"></path>
<path class="path2" d="M16 6.636c-0.256 0-0.464-0.208-0.464-0.464v-5.708c0-0.256 0.208-0.464 0.464-0.464s0.464 0.208 0.464 0.464v5.708c0 0.256-0.208 0.464-0.464 0.464z"></path>
<path class="path3" d="M16 32c-0.256 0-0.464-0.208-0.464-0.464v-5.708c0-0.256 0.208-0.464 0.464-0.464s0.464 0.208 0.464 0.464v5.726c-0.010 0.248-0.214 0.445-0.464 0.445-0 0-0 0-0 0z"></path>
<path class="path4" d="M31.555 16.464h-5.726c-0.256 0-0.464-0.208-0.464-0.464s0.208-0.464 0.464-0.464h5.726c0.256 0 0.464 0.208 0.464 0.464s-0.208 0.464-0.464 0.464z"></path>
<path class="path5" d="M6.172 16.464h-5.708c-0.256 0-0.464-0.208-0.464-0.464s0.208-0.464 0.464-0.464h5.708c0.256 0 0.464 0.208 0.464 0.464s-0.208 0.464-0.464 0.464z"></path>
<path class="path6" d="M16 18.561c-0.005 0-0.012 0-0.018 0-1.425 0-2.58-1.155-2.58-2.58s1.155-2.58 2.58-2.58c1.425 0 2.58 1.155 2.58 2.58 0 0.007-0 0.013-0 0.020-0.016 1.407-1.153 2.545-2.56 2.56zM16 14.32c-0.005-0-0.012-0-0.018-0-0.912 0-1.652 0.74-1.652 1.652s0.74 1.652 1.652 1.652c0.903 0 1.636-0.724 1.652-1.623 0-0.002 0-0.002 0-0.002 0-0.906-0.729-1.641-1.632-1.652z"></path>
<path class="path7" d="M14.506 14.97c-0.127-0.002-0.242-0.055-0.325-0.139l-7.981-7.981c-0.084-0.084-0.136-0.201-0.136-0.329 0-0.257 0.209-0.466 0.466-0.466 0.129 0 0.245 0.052 0.329 0.136l7.981 7.981c0.082 0.084 0.133 0.198 0.133 0.325 0 0.254-0.204 0.46-0.457 0.464z"></path>
<path class="path8" d="M17.494 14.97c-0.253-0.004-0.458-0.21-0.458-0.464 0-0.127 0.051-0.241 0.133-0.325l4.176-4.176c0.084-0.084 0.201-0.136 0.329-0.136 0.257 0 0.466 0.209 0.466 0.466 0 0.129-0.052 0.245-0.136 0.329l-4.176 4.186c-0.082 0.075-0.192 0.121-0.313 0.121-0.008 0-0.015-0-0.023-0.001z"></path>
</symbol>
<symbol id="waze" viewBox="0 0 36 32">
<path fill="#3d3e3d" class="path1 fill-color2" d="M35.495 14.525c0 0.064-0.032 0.128-0.032 0.192-0.032 1.218-0.257 2.405-0.577 3.591-0.513 1.731-1.379 3.238-2.533 4.617-1.315 1.571-2.886 2.822-4.681 3.784-0.128 0.064-0.289 0.16-0.417 0.224 0.417 1.154 0.321 2.277-0.353 3.335-0.545 0.898-1.379 1.443-2.405 1.667-1.988 0.449-4.329-0.962-4.489-3.463-1.764 0-3.559 0-5.355 0-0.032 0.224-0.064 0.481-0.128 0.737-0.192 0.802-0.609 1.475-1.251 1.988-0.545 0.449-1.186 0.737-1.892 0.802-0.898 0.096-1.699-0.096-2.469-0.577-0.93-0.609-1.507-1.475-1.667-2.565-0.096-0.545-0.064-1.090 0.096-1.603 0.032-0.096 0.032-0.128-0.096-0.192-1.25-0.449-2.437-1.026-3.559-1.796-0.77-0.577-1.539-1.218-2.244-1.956-0.385-0.417-0.77-0.866-1.122-1.315-0.513-0.641-0.417-1.667 0.128-2.277 0.385-0.417 0.866-0.609 1.411-0.641 0.289 0 0.577-0.032 0.866-0.096 0.609-0.128 0.994-0.545 1.218-1.122 0.224-0.545 0.353-1.122 0.417-1.699 0.096-0.898 0.16-1.796 0.256-2.693 0.096-0.994 0.192-1.988 0.449-2.95 0.321-1.251 0.834-2.405 1.539-3.495 0.737-1.154 1.667-2.18 2.725-3.078 2.116-1.796 4.521-2.95 7.214-3.559 0.802-0.192 1.603-0.289 2.405-0.353 0.802-0.032 1.571-0.032 2.341 0.032 1.796 0.128 3.559 0.577 5.226 1.315 1.379 0.577 2.661 1.347 3.816 2.309 2.148 1.796 3.719 4.008 4.585 6.701 0.257 0.866 0.449 1.731 0.513 2.629 0.032 0.257 0.032 0.545 0.064 0.802 0 0.064 0 0.16 0.032 0.224-0.032 0.16-0.032 0.321-0.032 0.481zM1.892 20.97c0 0-0.032 0 0 0 0 0.032 0.032 0.064 0.032 0.064 0.77 0.962 1.635 1.828 2.661 2.533 1.154 0.834 2.437 1.411 3.784 1.892 0.096 0.032 0.16 0 0.224-0.064 0.866-0.705 1.892-0.994 2.982-0.802 1.186 0.192 2.052 0.834 2.661 1.86 0.032 0.032 0.096 0.096 0.128 0.096 0.321 0.032 0.673 0.064 0.994 0.064 1.667 0 3.303 0 4.97 0 0.096 0 0.128-0.032 0.16-0.096 0.449-0.802 1.058-1.379 1.924-1.699 1.315-0.481 2.533-0.289 3.655 0.513 0.064 0.064 0.128 0.064 0.192 0.032 1.603-0.77 3.014-1.828 4.232-3.11 0.866-0.93 1.571-1.956 2.084-3.11 0.866-1.956 1.186-4.008 0.962-6.156-0.16-1.315-0.513-2.565-1.122-3.752-1.154-2.277-2.854-4.008-5.002-5.323-1.988-1.218-4.168-1.892-6.509-2.020-1.186-0.064-2.373 0-3.527 0.224-1.443 0.289-2.822 0.737-4.104 1.411-1.924 0.994-3.591 2.341-4.874 4.136-0.705 1.026-1.25 2.116-1.539 3.335-0.256 0.962-0.321 1.988-0.417 2.982-0.096 0.898-0.16 1.828-0.289 2.725-0.096 0.802-0.321 1.603-0.705 2.309-0.481 0.93-1.25 1.539-2.277 1.796-0.385 0.064-0.834 0.096-1.283 0.16z"></path>
<path fill="#d8e0e4" class="path2 fill-color11" d="M1.892 20.97c0.449-0.064 0.898-0.096 1.347-0.224 1.026-0.256 1.764-0.866 2.277-1.796 0.385-0.737 0.609-1.507 0.705-2.309 0.128-0.898 0.192-1.828 0.289-2.725 0.096-0.994 0.16-1.988 0.417-2.982 0.321-1.186 0.834-2.309 1.539-3.335 1.251-1.796 2.918-3.142 4.874-4.136 1.315-0.673 2.661-1.154 4.104-1.411 1.154-0.224 2.341-0.289 3.527-0.224 2.341 0.16 4.489 0.834 6.509 2.020 2.148 1.315 3.88 3.046 5.002 5.323 0.609 1.186 0.962 2.437 1.122 3.752 0.224 2.148-0.096 4.168-0.962 6.156-0.513 1.154-1.218 2.18-2.084 3.11-1.218 1.315-2.629 2.341-4.232 3.11-0.096 0.032-0.128 0.032-0.192-0.032-1.122-0.834-2.341-1.026-3.655-0.513-0.834 0.321-1.475 0.898-1.924 1.699-0.032 0.064-0.096 0.096-0.16 0.096-1.667 0-3.303 0-4.97 0-0.321 0-0.673-0.032-0.994-0.064-0.064 0-0.128-0.032-0.128-0.096-0.609-1.026-1.475-1.667-2.661-1.86-1.122-0.192-2.116 0.096-2.982 0.802-0.064 0.064-0.128 0.096-0.224 0.064-1.347-0.449-2.629-1.058-3.784-1.892-0.994-0.705-1.892-1.539-2.661-2.533-0.064 0.064-0.096 0.032-0.096 0-0.032 0 0 0 0 0z"></path>
<path fill="#3d3e3d" class="path3 fill-color2" d="M19.976 20.713c-1.892-0.032-3.559-0.673-4.874-2.052-0.673-0.705-1.154-1.539-1.347-2.469-0.128-0.641 0.321-1.186 0.962-1.154 0.385 0 0.77 0.321 0.866 0.705 0.192 0.898 0.705 1.571 1.379 2.084 1.058 0.834 2.309 1.122 3.623 0.994 0.898-0.096 1.699-0.353 2.437-0.834 0.834-0.545 1.411-1.25 1.667-2.212 0.128-0.513 0.641-0.802 1.122-0.673s0.802 0.609 0.673 1.090c-0.192 0.834-0.577 1.571-1.154 2.212-1.026 1.154-2.309 1.828-3.816 2.148-0.513 0.096-1.026 0.16-1.539 0.16zM17.635 11.126c0-0.962-0.802-1.796-1.764-1.796-0.994 0-1.796 0.802-1.796 1.764 0 0.994 0.802 1.796 1.796 1.796 0.962 0.032 1.764-0.77 1.764-1.764zM26.004 11.126c0-0.994-0.802-1.796-1.796-1.796s-1.796 0.802-1.796 1.796 0.802 1.796 1.796 1.796 1.796-0.802 1.796-1.796z"></path>
<path fill="#515252" class="path4 fill-color4" d="M12.088 28.216c0 0.673-0.474 1.218-1.058 1.218s-1.058-0.546-1.058-1.218c0-0.673 0.474-1.218 1.058-1.218s1.058 0.546 1.058 1.218z"></path>
<path fill="#515252" class="path5 fill-color4" d="M24.786 28.216c0 0.673-0.474 1.218-1.058 1.218s-1.058-0.546-1.058-1.218c0-0.673 0.474-1.218 1.058-1.218s1.058 0.546 1.058 1.218z"></path>
</symbol>
</defs>
</svg>
